<svg width="110" height="24" viewBox="0 0 110 24" fill="none" xmlns="http://www.w3.org/2000/svg">
<path d="M33.82 12.1C33.82 11.3627 33.9787 10.7047 34.296 10.126C34.6227 9.54733 35.066 9.09 35.626 8.754C36.186 8.418 36.8207 8.25 37.53 8.25C38.2487 8.25 38.8833 8.418 39.434 8.754C39.994 9.09 40.4327 9.54733 40.75 10.126C41.0767 10.7047 41.24 11.3627 41.24 12.1C41.24 12.8373 41.0767 13.4953 40.75 14.074C40.4327 14.6527 39.994 15.11 39.434 15.446C38.8833 15.782 38.2487 15.95 37.53 15.95C36.8207 15.95 36.186 15.782 35.626 15.446C35.066 15.11 34.6227 14.6527 34.296 14.074C33.9787 13.4953 33.82 12.8373 33.82 12.1ZM32.56 12.1C32.56 12.8093 32.6813 13.472 32.924 14.088C33.176 14.704 33.526 15.2407 33.974 15.698C34.422 16.146 34.9493 16.5007 35.556 16.762C36.1627 17.014 36.8207 17.14 37.53 17.14C38.2487 17.14 38.9067 17.014 39.504 16.762C40.1107 16.5007 40.638 16.146 41.086 15.698C41.534 15.2407 41.8793 14.704 42.122 14.088C42.374 13.472 42.5 12.8093 42.5 12.1C42.5 11.3813 42.374 10.7187 42.122 10.112C41.8793 9.496 41.534 8.964 41.086 8.516C40.638 8.05867 40.1107 7.704 39.504 7.452C38.9067 7.19067 38.2487 7.06 37.53 7.06C36.8207 7.06 36.1627 7.19067 35.556 7.452C34.9493 7.704 34.422 8.05867 33.974 8.516C33.526 8.964 33.176 9.496 32.924 10.112C32.6813 10.7187 32.56 11.3813 32.56 12.1ZM46.8825 11.47C47.3025 11.47 47.6759 11.568 48.0025 11.764C48.3385 11.96 48.5999 12.2353 48.7865 12.59C48.9825 12.9353 49.0805 13.332 49.0805 13.78C49.0805 14.228 48.9825 14.6247 48.7865 14.97C48.5999 15.3153 48.3385 15.5907 48.0025 15.796C47.6759 15.992 47.3025 16.09 46.8825 16.09C46.4625 16.09 46.0845 15.992 45.7485 15.796C45.4219 15.5907 45.1605 15.3153 44.9645 14.97C44.7685 14.6247 44.6705 14.228 44.6705 13.78L43.5505 12.94C43.5505 13.864 43.6952 14.6387 43.9845 15.264C44.2832 15.8893 44.6845 16.3607 45.1885 16.678C45.6925 16.986 46.2572 17.14 46.8825 17.14C47.5172 17.14 48.0819 16.9953 48.5765 16.706C49.0805 16.4167 49.4772 16.02 49.7665 15.516C50.0652 15.0027 50.2145 14.424 50.2145 13.78C50.2145 13.1267 50.0652 12.548 49.7665 12.044C49.4772 11.54 49.0805 11.1433 48.5765 10.854C48.0819 10.5647 47.5172 10.42 46.8825 10.42V11.47ZM44.1665 13.78H44.6705C44.6705 13.4067 44.7359 13.08 44.8665 12.8C45.0065 12.5107 45.1839 12.268 45.3985 12.072C45.6225 11.876 45.8652 11.7267 46.1265 11.624C46.3879 11.5213 46.6399 11.47 46.8825 11.47V10.42C46.4812 10.42 46.1125 10.4993 45.7765 10.658C45.4499 10.8073 45.1652 11.0267 44.9225 11.316C44.6799 11.6053 44.4932 11.96 44.3625 12.38C44.2319 12.7907 44.1665 13.2573 44.1665 13.78ZM43.5505 12.94L44.5305 13.682V12.24C44.5305 11.7733 44.5912 11.3067 44.7125 10.84C44.8339 10.364 45.0532 9.93933 45.3705 9.566C45.6972 9.19267 46.1499 8.91267 46.7285 8.726C47.2419 8.558 47.6992 8.348 48.1005 8.096C48.5112 7.844 48.8425 7.55 49.0945 7.214C49.3465 6.86867 49.4959 6.49067 49.5425 6.08H48.4365C48.3712 6.416 48.1799 6.738 47.8625 7.046C47.5545 7.34467 47.0832 7.60133 46.4485 7.816C45.7019 8.068 45.1139 8.432 44.6845 8.908C44.2645 9.37467 43.9705 9.944 43.8025 10.616C43.6345 11.288 43.5505 12.0627 43.5505 12.94ZM53.7411 13.976H55.7431C56.1538 13.976 56.4618 14.0647 56.6671 14.242C56.8725 14.4193 56.9751 14.6713 56.9751 14.998C56.9751 15.2127 56.9285 15.3993 56.8351 15.558C56.7418 15.7073 56.6018 15.824 56.4151 15.908C56.2378 15.9827 56.0138 16.02 55.7431 16.02H53.7411V17H55.7431C56.1911 17 56.5925 16.93 56.9471 16.79C57.3018 16.65 57.5818 16.4307 57.7871 16.132C57.9925 15.8333 58.0951 15.4553 58.0951 14.998C58.0951 14.3073 57.8665 13.8033 57.4091 13.486C56.9611 13.1593 56.4058 12.996 55.7431 12.996H53.7411V13.976ZM53.0831 11.61V17H54.2031V10.56H50.7731V11.61H53.0831ZM60.7709 17L63.1509 13.64H61.9189L59.5389 17H60.7709ZM64.8589 17V10.56H63.7389V17H64.8589ZM64.2009 13.444H62.1989C61.9282 13.444 61.6995 13.4113 61.5129 13.346C61.3355 13.2713 61.2002 13.164 61.1069 13.024C61.0135 12.884 60.9669 12.7067 60.9669 12.492C60.9669 12.2773 61.0135 12.1 61.1069 11.96C61.2002 11.82 61.3355 11.7173 61.5129 11.652C61.6995 11.5773 61.9282 11.54 62.1989 11.54H64.2009V10.56H62.1989C61.7602 10.56 61.3589 10.6253 60.9949 10.756C60.6402 10.8867 60.3602 11.092 60.1549 11.372C59.9495 11.652 59.8469 12.0253 59.8469 12.492C59.8469 12.9493 59.9495 13.3227 60.1549 13.612C60.3602 13.892 60.6402 14.0973 60.9949 14.228C61.3589 14.3587 61.7602 14.424 62.1989 14.424H64.2009V13.444ZM67.2725 13.64V14.228H69.1345C69.3491 14.228 69.5311 14.2513 69.6805 14.298C69.8391 14.3353 69.9651 14.396 70.0585 14.48C70.1611 14.564 70.2358 14.6573 70.2825 14.76C70.3385 14.8627 70.3665 14.9793 70.3665 15.11C70.3665 15.362 70.2638 15.5767 70.0585 15.754C69.8625 15.9313 69.5545 16.02 69.1345 16.02H67.2725V17H69.4145C70.1518 17 70.6791 16.832 70.9965 16.496C71.3231 16.1507 71.4865 15.7353 71.4865 15.25C71.4865 14.83 71.3838 14.5033 71.1785 14.27C70.9731 14.0367 70.6931 13.8733 70.3385 13.78C69.9838 13.6867 69.5825 13.64 69.1345 13.64H67.2725ZM67.2725 13.92H68.9945C69.3958 13.92 69.7598 13.864 70.0865 13.752C70.4225 13.6307 70.6931 13.4533 70.8985 13.22C71.1038 12.9773 71.2065 12.674 71.2065 12.31C71.2065 11.89 71.1038 11.554 70.8985 11.302C70.6931 11.0407 70.4225 10.854 70.0865 10.742C69.7598 10.6207 69.3958 10.56 68.9945 10.56H67.2725V11.54H68.9945C69.3305 11.54 69.5965 11.6193 69.7925 11.778C69.9885 11.9273 70.0865 12.128 70.0865 12.38C70.0865 12.5013 70.0585 12.618 70.0025 12.73C69.9558 12.8327 69.8858 12.926 69.7925 13.01C69.6991 13.094 69.5825 13.1593 69.4425 13.206C69.3118 13.2433 69.1625 13.262 68.9945 13.262H67.2725V13.92ZM66.6145 10.56V17H67.7345V10.56H66.6145ZM78.6002 10.56H73.0702V14.76C73.0702 15.2173 72.9675 15.5347 72.7622 15.712C72.5662 15.8893 72.3282 15.978 72.0482 15.978V17C72.5335 17 72.9349 16.9207 73.2522 16.762C73.5695 16.594 73.8029 16.3467 73.9522 16.02C74.1109 15.684 74.1902 15.264 74.1902 14.76V11.61H77.4802V17H78.6002V10.56ZM80.9188 14.06H86.4208C86.4302 14.004 86.4348 13.948 86.4348 13.892C86.4348 13.836 86.4348 13.78 86.4348 13.724C86.4348 13.0427 86.3088 12.4593 86.0568 11.974C85.8048 11.4793 85.4502 11.0967 84.9928 10.826C84.5355 10.5553 84.0035 10.42 83.3968 10.42C82.8462 10.42 82.3468 10.532 81.8988 10.756C81.4602 10.98 81.1008 11.2927 80.8208 11.694C80.5408 12.0953 80.3542 12.562 80.2608 13.094C80.2422 13.206 80.2282 13.318 80.2188 13.43C80.2095 13.542 80.2048 13.6587 80.2048 13.78C80.2048 14.424 80.3355 15.0027 80.5968 15.516C80.8675 16.02 81.2315 16.4167 81.6888 16.706C82.1555 16.9953 82.6782 17.14 83.2568 17.14C83.8168 17.14 84.2835 17.0747 84.6568 16.944C85.0302 16.804 85.3475 16.6127 85.6088 16.37C85.8702 16.118 86.1082 15.8287 86.3228 15.502L85.4128 14.928C85.2728 15.1613 85.1048 15.3667 84.9088 15.544C84.7128 15.712 84.4888 15.8473 84.2368 15.95C83.9942 16.0433 83.7142 16.09 83.3968 16.09C82.9768 16.09 82.6128 16.0013 82.3048 15.824C81.9968 15.6467 81.7588 15.3853 81.5908 15.04C81.4228 14.6947 81.3388 14.2747 81.3388 13.78L81.3668 13.36C81.3668 12.9587 81.4555 12.6133 81.6328 12.324C81.8195 12.0253 82.0668 11.7967 82.3748 11.638C82.6828 11.4793 83.0235 11.4 83.3968 11.4C83.7702 11.4 84.0828 11.4747 84.3348 11.624C84.5962 11.764 84.7968 11.9647 84.9368 12.226C85.0862 12.478 85.1795 12.772 85.2168 13.108H80.9188V14.06ZM88.6279 14.13H93.3879V13.08H88.6279V14.13ZM92.6599 10.56V17H93.7799V10.56H92.6599ZM87.9699 10.56V17H89.0899V10.56H87.9699ZM101.276 11.68L101.346 10.07L96.0259 15.88L95.9559 17.49L101.276 11.68ZM97.0759 10.56H95.9559V17.49L97.0759 15.95V10.56ZM101.346 10.07L100.226 11.61V17H101.346V10.07ZM104.439 17L106.819 13.64H105.587L103.207 17H104.439ZM108.527 17V10.56H107.407V17H108.527ZM107.869 13.444H105.867C105.596 13.444 105.368 13.4113 105.181 13.346C105.004 13.2713 104.868 13.164 104.775 13.024C104.682 12.884 104.635 12.7067 104.635 12.492C104.635 12.2773 104.682 12.1 104.775 11.96C104.868 11.82 105.004 11.7173 105.181 11.652C105.368 11.5773 105.596 11.54 105.867 11.54H107.869V10.56H105.867C105.428 10.56 105.027 10.6253 104.663 10.756C104.308 10.8867 104.028 11.092 103.823 11.372C103.618 11.652 103.515 12.0253 103.515 12.492C103.515 12.9493 103.618 13.3227 103.823 13.612C104.028 13.892 104.308 14.0973 104.663 14.228C105.027 14.3587 105.428 14.424 105.867 14.424H107.869V13.444Z" fill="#4877F2"/>
<path d="M1.66675 4.5H6.66675C7.5508 4.5 8.39865 4.85119 9.02377 5.47631C9.64889 6.10143 10.0001 6.94928 10.0001 7.83333V19.5C10.0001 18.837 9.73669 18.2011 9.26785 17.7322C8.79901 17.2634 8.16312 17 7.50008 17H1.66675V4.5Z" stroke="#4877F2" stroke-width="1.5" stroke-linecap="round" stroke-linejoin="round"/>
<path d="M18.3333 4.5H13.3333C12.4493 4.5 11.6014 4.85119 10.9763 5.47631C10.3512 6.10143 10 6.94928 10 7.83333V19.5C10 18.837 10.2634 18.2011 10.7322 17.7322C11.2011 17.2634 11.837 17 12.5 17H18.3333V4.5Z" stroke="#4877F2" stroke-width="1.5" stroke-linecap="round" stroke-linejoin="round"/>
</svg>
