<svg width="135" height="24" viewBox="0 0 135 24" fill="none" xmlns="http://www.w3.org/2000/svg">
<path d="M34.058 11.82H35.64C36.228 11.82 36.7367 11.736 37.166 11.568C37.6047 11.4 37.9453 11.1527 38.188 10.826C38.4307 10.4993 38.552 10.1073 38.552 9.65C38.552 9.09 38.4307 8.63267 38.188 8.278C37.9453 7.914 37.6047 7.64333 37.166 7.466C36.7367 7.28867 36.228 7.2 35.64 7.2H33.12V17H35.78C36.4147 17 36.9793 16.8973 37.474 16.692C37.978 16.4773 38.3747 16.16 38.664 15.74C38.9627 15.3107 39.112 14.774 39.112 14.13C39.112 13.682 39.028 13.2947 38.86 12.968C38.692 12.6413 38.454 12.3753 38.146 12.17C37.8473 11.9553 37.4973 11.7967 37.096 11.694C36.6947 11.5913 36.256 11.54 35.78 11.54H34.058V12.198H35.78C36.0973 12.198 36.3867 12.24 36.648 12.324C36.9093 12.3987 37.1333 12.5153 37.32 12.674C37.516 12.8327 37.6653 13.0287 37.768 13.262C37.8707 13.4953 37.922 13.7613 37.922 14.06C37.922 14.4613 37.8287 14.802 37.642 15.082C37.4647 15.362 37.2127 15.5767 36.886 15.726C36.5687 15.8753 36.2 15.95 35.78 15.95H34.31V8.25H35.64C36.1347 8.25 36.5453 8.38067 36.872 8.642C37.1987 8.894 37.362 9.25333 37.362 9.72C37.362 10.028 37.2873 10.2893 37.138 10.504C36.9887 10.7187 36.7833 10.882 36.522 10.994C36.2607 11.106 35.9667 11.162 35.64 11.162H34.058V11.82ZM41.0106 14.06H46.5126C46.522 14.004 46.5266 13.948 46.5266 13.892C46.5266 13.836 46.5266 13.78 46.5266 13.724C46.5266 13.0427 46.4006 12.4593 46.1486 11.974C45.8966 11.4793 45.542 11.0967 45.0846 10.826C44.6273 10.5553 44.0953 10.42 43.4886 10.42C42.938 10.42 42.4386 10.532 41.9906 10.756C41.552 10.98 41.1926 11.2927 40.9126 11.694C40.6326 12.0953 40.446 12.562 40.3526 13.094C40.334 13.206 40.32 13.318 40.3106 13.43C40.3013 13.542 40.2966 13.6587 40.2966 13.78C40.2966 14.424 40.4273 15.0027 40.6886 15.516C40.9593 16.02 41.3233 16.4167 41.7806 16.706C42.2473 16.9953 42.77 17.14 43.3486 17.14C43.9086 17.14 44.3753 17.0747 44.7486 16.944C45.122 16.804 45.4393 16.6127 45.7006 16.37C45.962 16.118 46.2 15.8287 46.4146 15.502L45.5046 14.928C45.3646 15.1613 45.1966 15.3667 45.0006 15.544C44.8046 15.712 44.5806 15.8473 44.3286 15.95C44.086 16.0433 43.806 16.09 43.4886 16.09C43.0686 16.09 42.7046 16.0013 42.3966 15.824C42.0886 15.6467 41.8506 15.3853 41.6826 15.04C41.5146 14.6947 41.4306 14.2747 41.4306 13.78L41.4586 13.36C41.4586 12.9587 41.5473 12.6133 41.7246 12.324C41.9113 12.0253 42.1586 11.7967 42.4666 11.638C42.7746 11.4793 43.1153 11.4 43.4886 11.4C43.862 11.4 44.1746 11.4747 44.4266 11.624C44.688 11.764 44.8886 11.9647 45.0286 12.226C45.178 12.478 45.2713 12.772 45.3086 13.108H41.0106V14.06ZM49.1117 20.08V10.56H47.9917V20.08H49.1117ZM54.5017 13.78C54.5017 13.08 54.3571 12.4827 54.0677 11.988C53.7784 11.484 53.3911 11.0967 52.9057 10.826C52.4297 10.5553 51.8977 10.42 51.3097 10.42C50.7777 10.42 50.3064 10.5553 49.8957 10.826C49.4944 11.0967 49.1771 11.484 48.9437 11.988C48.7197 12.4827 48.6077 13.08 48.6077 13.78C48.6077 14.4707 48.7197 15.068 48.9437 15.572C49.1771 16.076 49.4944 16.4633 49.8957 16.734C50.3064 17.0047 50.7777 17.14 51.3097 17.14C51.8977 17.14 52.4297 17.0047 52.9057 16.734C53.3911 16.4633 53.7784 16.076 54.0677 15.572C54.3571 15.068 54.5017 14.4707 54.5017 13.78ZM53.3677 13.78C53.3677 14.2747 53.2651 14.6947 53.0597 15.04C52.8637 15.3853 52.5977 15.6467 52.2617 15.824C51.9351 16.0013 51.5711 16.09 51.1697 16.09C50.8431 16.09 50.5211 16.0013 50.2037 15.824C49.8864 15.6467 49.6251 15.3853 49.4197 15.04C49.2144 14.6947 49.1117 14.2747 49.1117 13.78C49.1117 13.2853 49.2144 12.8653 49.4197 12.52C49.6251 12.1747 49.8864 11.9133 50.2037 11.736C50.5211 11.5587 50.8431 11.47 51.1697 11.47C51.5711 11.47 51.9351 11.5587 52.2617 11.736C52.5977 11.9133 52.8637 12.1747 53.0597 12.52C53.2651 12.8653 53.3677 13.2853 53.3677 13.78ZM56.7041 14.13H61.4641V13.08H56.7041V14.13ZM60.7361 10.56V17H61.8561V10.56H60.7361ZM56.0461 10.56V17H57.1661V10.56H56.0461ZM69.0721 10.56H67.8121L65.8241 15.544L66.2861 15.6L64.2421 10.56H62.9121L65.3761 16.09L63.6121 20.08H64.8721L69.0721 10.56ZM69.1481 10.56V11.61H72.9281V10.56H69.1481ZM70.4781 10.84V17H71.5981V10.84H70.4781ZM74.052 10.56V17H75.172V10.56H74.052ZM74.71 13.976H76.712C77.1226 13.976 77.4306 14.0647 77.636 14.242C77.8413 14.4193 77.944 14.6713 77.944 14.998C77.944 15.2127 77.8973 15.3993 77.804 15.558C77.7106 15.7073 77.5706 15.824 77.384 15.908C77.2066 15.9827 76.9826 16.02 76.712 16.02H74.71V17H76.712C77.16 17 77.5613 16.93 77.916 16.79C78.2706 16.65 78.5506 16.4307 78.756 16.132C78.9613 15.8333 79.064 15.4553 79.064 14.998C79.064 14.3073 78.8353 13.8033 78.378 13.486C77.93 13.1593 77.3746 12.996 76.712 12.996H74.71V13.976ZM81.3235 13.78C81.3235 13.332 81.4169 12.9353 81.6035 12.59C81.7995 12.2353 82.0609 11.96 82.3875 11.764C82.7235 11.568 83.1015 11.47 83.5215 11.47C83.8669 11.47 84.1889 11.526 84.4875 11.638C84.7955 11.7407 85.0615 11.8807 85.2855 12.058C85.5095 12.2353 85.6682 12.4313 85.7615 12.646V11.246C85.5375 10.9847 85.2155 10.784 84.7955 10.644C84.3849 10.4947 83.9602 10.42 83.5215 10.42C82.8962 10.42 82.3315 10.5647 81.8275 10.854C81.3235 11.1433 80.9222 11.54 80.6235 12.044C80.3342 12.548 80.1895 13.1267 80.1895 13.78C80.1895 14.424 80.3342 15.0027 80.6235 15.516C80.9222 16.02 81.3235 16.4167 81.8275 16.706C82.3315 16.9953 82.8962 17.14 83.5215 17.14C83.9602 17.14 84.3849 17.07 84.7955 16.93C85.2155 16.7807 85.5375 16.5753 85.7615 16.314V14.914C85.6682 15.1193 85.5095 15.3153 85.2855 15.502C85.0615 15.6793 84.7955 15.824 84.4875 15.936C84.1889 16.0387 83.8669 16.09 83.5215 16.09C83.1015 16.09 82.7235 15.992 82.3875 15.796C82.0609 15.5907 81.7995 15.3153 81.6035 14.97C81.4169 14.6247 81.3235 14.228 81.3235 13.78ZM88.4291 17L90.8091 13.64H89.5771L87.1971 17H88.4291ZM92.5171 17V10.56H91.3971V17H92.5171ZM91.8591 13.444H89.8571C89.5864 13.444 89.3577 13.4113 89.1711 13.346C88.9937 13.2713 88.8584 13.164 88.7651 13.024C88.6717 12.884 88.6251 12.7067 88.6251 12.492C88.6251 12.2773 88.6717 12.1 88.7651 11.96C88.8584 11.82 88.9937 11.7173 89.1711 11.652C89.3577 11.5773 89.5864 11.54 89.8571 11.54H91.8591V10.56H89.8571C89.4184 10.56 89.0171 10.6253 88.6531 10.756C88.2984 10.8867 88.0184 11.092 87.8131 11.372C87.6077 11.652 87.5051 12.0253 87.5051 12.492C87.5051 12.9493 87.6077 13.3227 87.8131 13.612C88.0184 13.892 88.2984 14.0973 88.6531 14.228C89.0171 14.3587 89.4184 14.424 89.8571 14.424H91.8591V13.444ZM99.1279 14.13H103.888V13.08H99.1279V14.13ZM103.16 10.56V17H104.28V10.56H103.16ZM98.4699 10.56V17H99.5899V10.56H98.4699ZM106.89 15.11C106.89 14.8487 106.951 14.6247 107.072 14.438C107.193 14.2513 107.375 14.1067 107.618 14.004C107.87 13.9013 108.183 13.85 108.556 13.85C108.967 13.85 109.335 13.906 109.662 14.018C109.989 14.1207 110.311 14.284 110.628 14.508V13.85C110.563 13.766 110.441 13.6587 110.264 13.528C110.087 13.388 109.849 13.2667 109.55 13.164C109.261 13.052 108.911 12.996 108.5 12.996C107.94 12.996 107.455 13.0847 107.044 13.262C106.633 13.43 106.316 13.6727 106.092 13.99C105.868 14.3073 105.756 14.6947 105.756 15.152C105.756 15.5907 105.854 15.9593 106.05 16.258C106.255 16.5473 106.526 16.7667 106.862 16.916C107.198 17.0653 107.567 17.14 107.968 17.14C108.416 17.14 108.822 17.0653 109.186 16.916C109.55 16.7573 109.839 16.5333 110.054 16.244C110.278 15.9453 110.39 15.5907 110.39 15.18L110.166 14.48C110.166 14.8813 110.082 15.2033 109.914 15.446C109.755 15.6887 109.531 15.866 109.242 15.978C108.953 16.09 108.621 16.146 108.248 16.146C107.996 16.146 107.767 16.1087 107.562 16.034C107.357 15.95 107.193 15.8333 107.072 15.684C106.951 15.5253 106.89 15.334 106.89 15.11ZM106.89 12.072C106.993 11.9973 107.133 11.9087 107.31 11.806C107.497 11.694 107.716 11.6007 107.968 11.526C108.22 11.442 108.5 11.4 108.808 11.4C109.163 11.4 109.475 11.484 109.746 11.652C110.026 11.8107 110.166 12.0533 110.166 12.38V17H111.286V12.38C111.286 11.96 111.179 11.6053 110.964 11.316C110.759 11.0267 110.469 10.8073 110.096 10.658C109.732 10.4993 109.303 10.42 108.808 10.42C108.229 10.42 107.735 10.5087 107.324 10.686C106.913 10.8633 106.587 11.0407 106.344 11.218L106.89 12.072ZM115.463 13.78C116.2 13.78 116.774 13.626 117.185 13.318C117.605 13.01 117.815 12.6227 117.815 12.156C117.815 11.8387 117.717 11.5493 117.521 11.288C117.334 11.0267 117.073 10.8167 116.737 10.658C116.401 10.4993 116.023 10.42 115.603 10.42C115.155 10.42 114.754 10.5133 114.399 10.7C114.044 10.8773 113.764 11.12 113.559 11.428C113.354 11.736 113.251 12.072 113.251 12.436H114.385C114.385 12.2867 114.427 12.1373 114.511 11.988C114.595 11.8293 114.726 11.6987 114.903 11.596C115.09 11.484 115.323 11.428 115.603 11.428C115.939 11.428 116.2 11.5027 116.387 11.652C116.574 11.792 116.667 11.988 116.667 12.24C116.667 12.4733 116.574 12.674 116.387 12.842C116.2 13.0007 115.892 13.08 115.463 13.08V13.78ZM115.575 17.14C116.032 17.14 116.452 17.0607 116.835 16.902C117.218 16.734 117.521 16.5007 117.745 16.202C117.978 15.894 118.095 15.53 118.095 15.11C118.095 14.5033 117.857 14.06 117.381 13.78C116.905 13.5 116.266 13.36 115.463 13.36V14.06C115.79 14.06 116.065 14.102 116.289 14.186C116.522 14.27 116.695 14.3913 116.807 14.55C116.928 14.7087 116.989 14.9 116.989 15.124C116.989 15.3293 116.933 15.5113 116.821 15.67C116.709 15.8287 116.546 15.95 116.331 16.034C116.126 16.118 115.874 16.16 115.575 16.16C115.09 16.16 114.74 16.0387 114.525 15.796C114.31 15.5533 114.17 15.278 114.105 14.97H112.971C113.046 15.5953 113.307 16.1133 113.755 16.524C114.212 16.9347 114.819 17.14 115.575 17.14ZM120.275 15.11C120.275 14.8487 120.335 14.6247 120.457 14.438C120.578 14.2513 120.76 14.1067 121.003 14.004C121.255 13.9013 121.567 13.85 121.941 13.85C122.351 13.85 122.72 13.906 123.047 14.018C123.373 14.1207 123.695 14.284 124.013 14.508V13.85C123.947 13.766 123.826 13.6587 123.649 13.528C123.471 13.388 123.233 13.2667 122.935 13.164C122.645 13.052 122.295 12.996 121.885 12.996C121.325 12.996 120.839 13.0847 120.429 13.262C120.018 13.43 119.701 13.6727 119.477 13.99C119.253 14.3073 119.141 14.6947 119.141 15.152C119.141 15.5907 119.239 15.9593 119.435 16.258C119.64 16.5473 119.911 16.7667 120.247 16.916C120.583 17.0653 120.951 17.14 121.353 17.14C121.801 17.14 122.207 17.0653 122.571 16.916C122.935 16.7573 123.224 16.5333 123.439 16.244C123.663 15.9453 123.775 15.5907 123.775 15.18L123.551 14.48C123.551 14.8813 123.467 15.2033 123.299 15.446C123.14 15.6887 122.916 15.866 122.627 15.978C122.337 16.09 122.006 16.146 121.633 16.146C121.381 16.146 121.152 16.1087 120.947 16.034C120.741 15.95 120.578 15.8333 120.457 15.684C120.335 15.5253 120.275 15.334 120.275 15.11ZM120.275 12.072C120.377 11.9973 120.517 11.9087 120.695 11.806C120.881 11.694 121.101 11.6007 121.353 11.526C121.605 11.442 121.885 11.4 122.193 11.4C122.547 11.4 122.86 11.484 123.131 11.652C123.411 11.8107 123.551 12.0533 123.551 12.38V17H124.671V12.38C124.671 11.96 124.563 11.6053 124.349 11.316C124.143 11.0267 123.854 10.8073 123.481 10.658C123.117 10.4993 122.687 10.42 122.193 10.42C121.614 10.42 121.119 10.5087 120.709 10.686C120.298 10.8633 119.971 11.0407 119.729 11.218L120.275 12.072ZM130.066 12.492L131.956 16.58H133.216L130.066 10.07L126.916 16.58H128.176L130.066 12.492ZM132.936 17V18.26H134.056V15.95H126.076V18.26H127.266V17H132.936Z" fill="#2A2F37"/>
<path d="M19 12L5 12" stroke="#2A2F37" stroke-width="2" stroke-linecap="round" stroke-linejoin="round"/>
<path d="M12 19L5 12L12 5" stroke="#2A2F37" stroke-width="2" stroke-linecap="round" stroke-linejoin="round"/>
</svg>
