<svg width="14" height="20" viewBox="0 0 14 20" fill="none" xmlns="http://www.w3.org/2000/svg">
<path d="M3.66663 4.99984V3.33317C3.66663 2.89114 3.84222 2.46722 4.15478 2.15466C4.46734 1.8421 4.89127 1.6665 5.33329 1.6665H8.66663C9.10865 1.6665 9.53258 1.8421 9.84514 2.15466C10.1577 2.46722 10.3333 2.89114 10.3333 3.33317V4.99984M12.8333 4.99984V16.6665C12.8333 17.1085 12.6577 17.5325 12.3451 17.845C12.0326 18.1576 11.6087 18.3332 11.1666 18.3332H2.83329C2.39127 18.3332 1.96734 18.1576 1.65478 17.845C1.34222 17.5325 1.16663 17.1085 1.16663 16.6665V4.99984H12.8333Z" stroke="#2C2D2E" stroke-width="2" stroke-linecap="round" stroke-linejoin="round"/>
</svg>
