<svg width="71" height="24" viewBox="0 0 71 24" fill="none" xmlns="http://www.w3.org/2000/svg">
<path d="M34.058 11.82H35.64C36.228 11.82 36.7367 11.736 37.166 11.568C37.6047 11.4 37.9453 11.1527 38.188 10.826C38.4307 10.4993 38.552 10.1073 38.552 9.65C38.552 9.09 38.4307 8.63267 38.188 8.278C37.9453 7.914 37.6047 7.64333 37.166 7.466C36.7367 7.28867 36.228 7.2 35.64 7.2H33.12V17H35.78C36.4147 17 36.9793 16.8973 37.474 16.692C37.978 16.4773 38.3747 16.16 38.664 15.74C38.9627 15.3107 39.112 14.774 39.112 14.13C39.112 13.682 39.028 13.2947 38.86 12.968C38.692 12.6413 38.454 12.3753 38.146 12.17C37.8473 11.9553 37.4973 11.7967 37.096 11.694C36.6947 11.5913 36.256 11.54 35.78 11.54H34.058V12.198H35.78C36.0973 12.198 36.3867 12.24 36.648 12.324C36.9093 12.3987 37.1333 12.5153 37.32 12.674C37.516 12.8327 37.6653 13.0287 37.768 13.262C37.8707 13.4953 37.922 13.7613 37.922 14.06C37.922 14.4613 37.8287 14.802 37.642 15.082C37.4647 15.362 37.2127 15.5767 36.886 15.726C36.5687 15.8753 36.2 15.95 35.78 15.95H34.31V8.25H35.64C36.1347 8.25 36.5453 8.38067 36.872 8.642C37.1987 8.894 37.362 9.25333 37.362 9.72C37.362 10.028 37.2873 10.2893 37.138 10.504C36.9887 10.7187 36.7833 10.882 36.522 10.994C36.2607 11.106 35.9667 11.162 35.64 11.162H34.058V11.82ZM46.6666 10.56V17H47.7866V10.56H46.6666ZM40.8566 10.56V17H41.9766V10.56H40.8566ZM41.5146 13.976H43.5166C43.9273 13.976 44.2353 14.0647 44.4406 14.242C44.646 14.4193 44.7486 14.6713 44.7486 14.998C44.7486 15.2127 44.702 15.3993 44.6086 15.558C44.5153 15.7073 44.3753 15.824 44.1886 15.908C44.0113 15.9827 43.7873 16.02 43.5166 16.02H41.5146V17H43.5166C43.9646 17 44.366 16.93 44.7206 16.79C45.0753 16.65 45.3553 16.4307 45.5606 16.132C45.766 15.8333 45.8686 15.4553 45.8686 14.998C45.8686 14.3073 45.64 13.8033 45.1826 13.486C44.7346 13.1593 44.1793 12.996 43.5166 12.996H41.5146V13.976ZM53.3101 10.56L51.7701 12.8L50.2301 10.56H48.9701L51.1681 13.682L48.8301 17H50.0901L51.7701 14.564L53.4501 17H54.7101L52.3721 13.682L54.5701 10.56H53.3101ZM54.9939 13.78C54.9939 14.424 55.1386 15.0027 55.4279 15.516C55.7266 16.02 56.1279 16.4167 56.6319 16.706C57.1359 16.9953 57.7006 17.14 58.3259 17.14C58.9606 17.14 59.5252 16.9953 60.0199 16.706C60.5239 16.4167 60.9206 16.02 61.2099 15.516C61.5086 15.0027 61.6579 14.424 61.6579 13.78C61.6579 13.1267 61.5086 12.548 61.2099 12.044C60.9206 11.54 60.5239 11.1433 60.0199 10.854C59.5252 10.5647 58.9606 10.42 58.3259 10.42C57.7006 10.42 57.1359 10.5647 56.6319 10.854C56.1279 11.1433 55.7266 11.54 55.4279 12.044C55.1386 12.548 54.9939 13.1267 54.9939 13.78ZM56.1279 13.78C56.1279 13.332 56.2212 12.9353 56.4079 12.59C56.6039 12.2353 56.8652 11.96 57.1919 11.764C57.5279 11.568 57.9059 11.47 58.3259 11.47C58.7459 11.47 59.1192 11.568 59.4459 11.764C59.7819 11.96 60.0432 12.2353 60.2299 12.59C60.4259 12.9353 60.5239 13.332 60.5239 13.78C60.5239 14.228 60.4259 14.6247 60.2299 14.97C60.0432 15.3153 59.7819 15.5907 59.4459 15.796C59.1192 15.992 58.7459 16.09 58.3259 16.09C57.9059 16.09 57.5279 15.992 57.1919 15.796C56.8652 15.5907 56.6039 15.3153 56.4079 14.97C56.2212 14.6247 56.1279 14.228 56.1279 13.78ZM65.9992 12.492L67.8892 16.58H69.1492L65.9992 10.07L62.8492 16.58H64.1092L65.9992 12.492ZM68.8692 17V18.26H69.9892V15.95H62.0092V18.26H63.1992V17H68.8692Z" fill="#2A2F37"/>
<path d="M15 12.8333V17.8333C15 18.2754 14.8244 18.6993 14.5118 19.0118C14.1993 19.3244 13.7754 19.5 13.3333 19.5H4.16667C3.72464 19.5 3.30072 19.3244 2.98816 19.0118C2.67559 18.6993 2.5 18.2754 2.5 17.8333V8.66667C2.5 8.22464 2.67559 7.80072 2.98816 7.48816C3.30072 7.17559 3.72464 7 4.16667 7H9.16667" stroke="#2A2F37" stroke-width="1.5" stroke-linecap="round" stroke-linejoin="round"/>
<path d="M12.5 4.5H17.5V9.5" stroke="#2A2F37" stroke-width="1.5" stroke-linecap="round" stroke-linejoin="round"/>
<path d="M8.33325 13.6667L17.4999 4.5" stroke="#2A2F37" stroke-width="1.5" stroke-linecap="round" stroke-linejoin="round"/>
</svg>
